<?xml version="1.0" encoding="utf-8"?>
<!-- Svg Vector Icons : http://www.onlinewebfonts.com/icon -->
<!DOCTYPE svg PUBLIC "-//W3C//DTD SVG 1.1//EN" "http://www.w3.org/Graphics/SVG/1.1/DTD/svg11.dtd">
<svg version="1.1" xmlns="http://www.w3.org/2000/svg" xmlns:xlink="http://www.w3.org/1999/xlink" x="0px" y="0px" viewBox="0 0 1000 1000" enable-background="new 0 0 1000 1000" xml:space="preserve">
<metadata> Svg Vector Icons : http://www.onlinewebfonts.com/icon </metadata>
<g><path d="M549,282.9c119.5-28.2,225.8-132,355.5-101.9c39.1,8.7,109.1,46,77.6,93.5C906.3,349.5,796.5,375,710.2,434C649.4,545.1,608.6,667.4,544,776.7c-23.6,28.7-94.9,79-110.4,20.9c7.1-89,31.4-176,46.9-263.8c-98.1,39.1-196.2,88.3-303.7,92.6c-35.7,1.7-80-6.8-94.2-44.2c-24.9-54.3-52.9-107.6-71.4-164.4c-9.4-39.8,43.7-61.4,74.8-46.3c39.9,19.3,71.6,51.6,108.7,75.5c53-22.7,105-47.8,157.7-71c-39-24.8-79.2-47.8-118.7-71.6c-20.1-12.6-47.3-30.6-35.8-58c33.4-34.3,86-40.1,130.4-27.7C402,239.2,473.9,267.6,549,282.9z M790.4,231.7c-199.6,82.9-393.7,180.2-594.3,259.9c-54.5-13.8-90.4-65.3-143-85.5c23.7,57.6,48,115.2,75.9,171c146.5,17.6,277.6-67.7,409.6-117.4C518.7,564.9,497.6,670,481.4,776c20.4-19.9,39.8-41.3,51.6-67.5c47.6-105.7,96.2-210.8,146-315.4c91.4-44,187.5-82.3,268-145.1C900.6,218.3,841.8,209.3,790.4,231.7z M253.5,261.6c47.5,33.8,99.2,61,148.3,92.3c29.3-13,58.4-26,87.9-38.4C411.5,296.3,336.2,251.4,253.5,261.6z"/></g>
</svg>